<?xml version="1.0" encoding="UTF-8" standalone="no"?>
<!DOCTYPE svg PUBLIC "-//W3C//DTD SVG 1.1//EN" "http://www.w3.org/Graphics/SVG/1.1/DTD/svg11.dtd">
<svg width="100%" height="100%" viewBox="0 0 1600 500" version="1.1" xmlns="http://www.w3.org/2000/svg" xmlns:xlink="http://www.w3.org/1999/xlink" xml:space="preserve" xmlns:serif="http://www.serif.com/" style="fill-rule:evenodd;clip-rule:evenodd;stroke-linejoin:round;stroke-miterlimit:1.41421;">
    <g id="sky" transform="matrix(1.68577e-17,-0.275307,2.78869,1.70758e-16,196.023,499.349)">
        <rect x="-39.413" y="-70.292" width="1853.2" height="573.747" style="fill:url(#_Linear1);"/>
    </g>
    <g id="background-buildings" serif:id="background buildings" transform="matrix(1,0,0,1,-30,0)">
        <path d="M337.231,129.426L337.231,43.098L387.448,43.098L387.448,129.414L409.697,129.408L409.697,296.91L422.833,296.91L422.833,236.488L432.794,221.426L486.24,221.462L495.102,236.631L495.102,297.289L510.335,297.289L510.335,241.688L555.239,241.688L555.239,278.532L630.364,278.532L630.364,328.857L675.385,328.781L675.385,211.045L723.324,211.045L723.324,329.176L739.065,329.176L739.065,307.576L733.631,307.576L763.111,283.568L797.227,306.025L793.145,306.025L793.145,329.425L837.85,329.369L837.85,281.172L924.124,281.172L924.124,329.453L943.333,329.453L943.333,170.417L1040.32,170.797L1040.32,306.895L1053.46,306.895L1053.46,246.473L1124.77,246.614L1196.09,246.473L1196.09,306.895L1209.22,306.895L1209.22,140.797L1306.21,140.417L1306.21,329.453L1325.42,329.453L1325.42,281.172L1411.69,281.172L1411.69,329.369L1456.4,329.425L1456.4,306.025L1452.32,306.025L1486.43,283.568L1515.91,307.576L1510.48,307.576L1510.48,329.176L1526.22,329.176L1526.22,211.045L1574.16,211.045L1574.16,328.781L1619.18,328.857L1619.18,278.532L1694.3,278.532L1694.3,241.688L1739.21,241.688L1739.21,297.289L1754.44,297.289L1754.44,236.631L1763.3,221.462L1816.75,221.426L1826.71,236.488L1826.71,296.91L1839.85,296.91L1839.85,129.408L1936.83,129.432L1936.83,319.468L1956.04,319.468L1956.04,271.187L2042.32,271.187L2042.32,319.384L2064.93,319.384L2068.33,319.44L2087.02,319.44L2087.02,296.04L2082.94,296.04L2117.06,273.583L2146.54,297.591L2141.1,297.591L2141.1,319.191L2156.84,319.191L2156.84,201.06L2204.78,201.06L2204.78,318.796L2249.8,318.872L2249.8,268.547L2329.54,268.547L2329.54,497.214L1698.92,497.214L1698.92,507.199L1124.77,500.019L550.624,507.199L550.624,497.214L-80,497.214L-80,268.547L-0.26,268.547L-0.26,318.872L44.761,318.796L44.761,201.06L92.7,201.06L92.7,319.191L108.441,319.191L108.441,297.591L103.007,297.591L132.487,273.583L166.603,296.04L162.52,296.04L162.52,319.44L181.212,319.44L184.618,319.384L207.226,319.384L207.226,271.187L293.5,271.187L293.5,319.468L312.709,319.468L312.709,129.432L337.231,129.426Z" style="fill:rgb(188,45,25);fill-opacity:0.35;"/>
    </g>
    <g id="buildings" transform="matrix(0.901087,0,0,0.901087,1.83744,92.6252)">
        <path d="M1286.5,268.786L1303.54,284.17L1303.54,345.888L1326.02,345.888L1326.02,175.118L1491.96,174.819L1491.96,368.93L1524.83,368.93L1524.83,319.614L1672.44,319.614L1672.44,368.845L1711.12,368.845L1716.95,368.902L1748.93,368.902L1748.93,344.999L1741.95,344.999L1800.32,322.061L1850.76,346.584L1841.46,346.584L1841.46,368.647L1868.4,368.647L1868.4,247.983L1950.42,247.983L1950.42,368.243L1972.51,368.243C1972.51,368.243 1995.89,310.846 1973.1,269.774L2010.64,236.665L2010.64,368.321L2027.45,368.321L2027.45,316.917L2163.88,316.917L2163.88,488.782L-2.039,498.981L-1.996,402.615L-1.996,299.682L74.835,299.682L74.835,356.475L100.899,356.475L100.899,294.516L116.061,279.021L132.349,279.021C132.349,279.021 137.707,250.679 160.084,250.679C182.458,250.679 188.867,272.01 188.868,280.095L207.506,280.095L224.55,294.37L224.55,356.087L247.025,356.087L247.025,186.427L312.702,186.427L312.702,256.437L351.393,256.437L351.393,185.018L412.971,185.018L412.971,379.13L445.837,379.13L445.837,329.813L593.451,329.813L593.451,379.044L626.584,379.044L626.584,161.771C611.481,158.845 600.396,149.281 600.396,137.948C600.396,125.108 614.628,114.538 632.809,113.323L635.23,85.212L637.791,113.226C653.444,113.663 666.529,121.012 670.78,130.957C671.728,133.174 672.237,135.521 672.237,137.948C672.237,149.907 659.893,159.896 643.51,162.194L643.51,379.101L669.942,379.101L669.942,355.199L662.957,355.199L721.329,332.26L771.769,356.783L762.471,356.783L762.471,378.846L789.405,378.846L789.405,258.182L871.428,258.182L871.428,378.443L893.519,378.443C893.519,378.443 916.903,321.045 894.112,279.974L931.651,246.864L931.651,378.52L948.458,378.52L948.458,327.116L1077,327.116L1077,289.483L1153.83,289.483L1153.83,346.276L1179.89,346.276L1179.89,284.317L1195.05,268.822L1286.5,268.786Z" style="fill:rgb(188,45,25);"/>
    </g>
    <defs>
        <linearGradient id="_Linear1" x1="0" y1="0" x2="1" y2="0" gradientUnits="userSpaceOnUse" gradientTransform="matrix(1853.2,0,0,573.747,-39.4126,216.581)"><stop offset="0" style="stop-color:rgb(255,176,13);stop-opacity:1"/><stop offset="1" style="stop-color:rgb(255,137,38);stop-opacity:1"/></linearGradient>
    </defs>
</svg>
